<svg width="33" height="11" viewBox="0 0 33 11" fill="none" xmlns="http://www.w3.org/2000/svg">
<path d="M1.95911 5.12401C1.95911 7.01401 3.38711 8.34401 5.37511 8.34401C6.78911 8.34401 7.89511 7.68601 8.44111 6.62201H10.5131C9.91111 8.82001 7.89511 10.22 5.37511 10.22C2.30911 10.22 -0.000890628 8.03601 -0.000890628 5.12401C-0.000890628 2.17001 2.29511 9.29832e-06 5.37511 9.29832e-06C7.89511 9.29832e-06 9.89711 1.40001 10.5131 3.59801H8.44111C7.90911 2.52001 6.80311 1.87601 5.37511 1.87601C3.37311 1.87601 1.95911 3.19201 1.95911 5.12401ZM20.2198 4.80201H22.1798C21.8298 6.03401 21.1998 7.12601 20.3738 7.99401L22.7818 10.01H20.1498L19.0718 9.10001C18.0078 9.78601 16.7898 10.192 15.5018 10.22C13.4298 10.262 11.4698 9.12801 11.4698 7.36401C11.4698 6.13201 12.2538 5.09601 13.6258 4.45201C12.9538 3.75201 12.7158 3.19201 12.7158 2.49201C12.7158 1.02201 14.2278 9.29832e-06 16.4398 9.29832e-06C18.5118 9.29832e-06 19.9678 1.09201 19.9678 2.63201C19.9678 3.76601 19.2258 4.74601 17.6158 5.68401L18.9738 6.80401C19.5198 6.24401 19.9678 5.55801 20.2198 4.80201ZM16.3418 4.60601C17.4898 4.00401 18.0918 3.38801 18.0918 2.81401C18.0918 2.12801 17.4618 1.63801 16.5098 1.63801C15.5718 1.63801 14.8998 2.12801 14.8998 2.77201C14.8998 3.20601 15.2778 3.68201 16.3418 4.60601ZM17.6158 7.86801L14.7178 5.40401C13.8498 5.89401 13.3878 6.56601 13.4718 7.25201C13.5418 8.06401 14.6198 8.55401 15.9918 8.42801C16.5238 8.37201 17.0838 8.17601 17.6158 7.86801ZM28.417 8.30201C29.943 8.30201 31.021 7.12601 31.021 5.41801V0.210009H32.981V5.41801C32.981 8.12001 31.133 10.178 28.417 10.178C25.757 10.178 23.853 8.12001 23.853 5.41801V0.210009H25.813V5.41801C25.813 7.08401 26.919 8.30201 28.417 8.30201Z" fill="#333333"/>
</svg>
